HIERARCHY
ROOT pelvis
{
	OFFSET 0.000000 0.000000 0.905597
	CHANNELS 6 Xposition Yposition Zposition Xrotation Yrotation Zrotation
	JOINT spine
	{
		OFFSET 0.000000 0.000000 0.000000
		CHANNELS 6 Xposition Yposition Zposition Xrotation Yrotation Zrotation
		JOINT spine.001
		{
			OFFSET 0.000000 -0.014990 0.286021
			CHANNELS 3 Xrotation Yrotation Zrotation
			JOINT neck
			{
				OFFSET 0.000000 0.034905 0.284278
				CHANNELS 6 Xposition Yposition Zposition Xrotation Yrotation Zrotation
				JOINT face
				{
					OFFSET 0.000000 0.003661 0.209740
					CHANNELS 6 Xposition Yposition Zposition Xrotation Yrotation Zrotation
					End Site
					{
						OFFSET 0.000000 -0.029649 -0.008906
					}
				}
			}
			JOINT shoulder.L
			{
				OFFSET 0.000000 0.034905 0.284278
				CHANNELS 6 Xposition Yposition Zposition Yrotation Xrotation Zrotation
				JOINT upper_arm.L
				{
					OFFSET 0.176212 0.000000 0.000000
					CHANNELS 6 Xposition Yposition Zposition Xrotation Yrotation Zrotation
					JOINT forearm.L
					{
						OFFSET 0.321055 0.000132 0.001092
						CHANNELS 6 Xposition Yposition Zposition Xrotation Yrotation Zrotation
						End Site
						{
							OFFSET 0.264216 -0.004491 -0.001504
						}
					}
				}
			}
			JOINT shoulder.R
			{
				OFFSET 0.000000 0.034905 0.284278
				CHANNELS 6 Xposition Yposition Zposition Yrotation Xrotation Zrotation
				JOINT upper_arm.R
				{
					OFFSET -0.176212 0.000000 0.000000
					CHANNELS 6 Xposition Yposition Zposition Xrotation Yrotation Zrotation
					JOINT forearm.R
					{
						OFFSET -0.306861 0.000132 0.001092
						CHANNELS 6 Xposition Yposition Zposition Xrotation Yrotation Zrotation
						End Site
						{
							OFFSET -0.266230 -0.004526 -0.001504
						}
					}
				}
			}
		}
	}
	JOINT pelvis.L
	{
		OFFSET 0.000000 0.000000 0.000000
		CHANNELS 6 Xposition Yposition Zposition Yrotation Xrotation Zrotation
		End Site
		{
			OFFSET 0.118829 0.000000 0.000000
		}
	}
	JOINT pelvis.R
	{
		OFFSET 0.000000 0.000000 0.000000
		CHANNELS 6 Xposition Yposition Zposition Yrotation Xrotation Zrotation
		End Site
		{
			OFFSET -0.118829 0.000000 0.000000
		}
	}
	JOINT thigh.L
	{
		OFFSET 0.118829 0.000000 0.000000
		CHANNELS 6 Xposition Yposition Zposition Xrotation Yrotation Zrotation
		JOINT shin.L
		{
			OFFSET 0.023045 0.000000 -0.439733
			CHANNELS 6 Xposition Yposition Zposition Xrotation Yrotation Zrotation
			JOINT foot.L
			{
				OFFSET 0.019808 0.000000 -0.377965
				CHANNELS 3 Xrotation Yrotation Zrotation
				End Site
				{
					OFFSET 0.018349 -0.187092 -0.078563
				}
			}
			JOINT heel.02.L
			{
				OFFSET 0.019808 0.000000 -0.377965
				CHANNELS 3 Xrotation Yrotation Zrotation
				End Site
				{
					OFFSET 0.099154 0.039284 -0.081699
				}
			}
		}
	}
	JOINT thigh.R
	{
		OFFSET -0.118829 0.000000 0.000000
		CHANNELS 6 Xposition Yposition Zposition Xrotation Yrotation Zrotation
		JOINT shin.R
		{
			OFFSET -0.023282 0.000000 -0.444255
			CHANNELS 6 Xposition Yposition Zposition Xrotation Yrotation Zrotation
			JOINT foot.R
			{
				OFFSET -0.020276 0.000000 -0.386894
				CHANNELS 3 Xrotation Yrotation Zrotation
				End Site
				{
					OFFSET -0.018548 -0.189120 -0.079415
				}
			}
			JOINT heel.02.R
			{
				OFFSET -0.020276 0.000000 -0.386894
				CHANNELS 3 Xrotation Yrotation Zrotation
				End Site
				{
					OFFSET -0.093155 0.039284 -0.068525
				}
			}
		}
	}
}
MOTION
Frames: 5
Frame Time: 0.041667
0.021167 -0.043182 0.881905 -0.000000 0.000000 -0.050067 -0.000000 0.000000 -0.000000 -6.660955 2.726133 0.302492 9.999878 -0.042618 -0.347018 -0.000000 0.034905 0.284278 13.199623 -1.228888 -1.470914 0.000000 0.003661 0.209740 11.509628 0.000000 -0.000001 -0.000000 0.034905 0.284278 -2.267993 0.005511 0.278398 0.176212 0.000000 0.000000 51.930816 57.983860 -82.426477 0.321055 0.000132 0.001092 68.679424 53.936518 -105.140811 -0.000000 0.034905 0.284278 -2.212720 0.005245 0.271608 -0.176212 0.000000 0.000000 50.726712 -57.934546 80.948848 -0.306861 0.000132 0.001092 51.322656 -55.423300 83.380361 0.000000 0.000000 -0.000000 2.151344 0.000001 -0.000036 0.000000 0.000000 -0.000000 2.151344 -0.000000 0.000000 0.118745 0.000000 -0.004461 6.131874 3.989489 0.108092 0.023045 0.000000 -0.439733 3.083014 -2.226988 0.221325 -10.173802 -0.001684 -1.962385 -6.069209 42.024586 30.946894 -0.118745 0.000000 0.004461 7.531604 -1.015296 -0.328607 -0.023282 -0.000000 -0.444255 0.114786 0.808262 -0.006823 -12.779969 0.381846 1.680998 -12.354200 -41.744098 -30.077223 
0.020874 -0.044201 0.881879 -0.000000 0.000000 -0.111395 -0.000000 0.000000 -0.000000 -6.744720 2.751997 0.307400 9.999805 -0.041265 -0.336292 -0.000000 0.034905 0.284278 13.342583 -1.270500 -1.560609 0.000000 0.003661 0.209740 11.414248 0.000000 -0.000002 -0.000000 0.034905 0.284278 -2.257331 0.005458 0.277129 0.176212 0.000000 -0.000000 51.730401 58.056540 -82.089762 0.321055 0.000132 0.001092 67.899218 53.566008 -104.783134 -0.000000 0.034905 0.284278 -2.202061 0.005194 0.270297 -0.176212 0.000000 0.000000 50.909505 -58.038535 81.061580 -0.306861 0.000132 0.001092 51.134051 -55.330136 83.253620 0.000000 0.000000 -0.000000 2.144469 -0.000001 0.000032 0.000000 0.000000 -0.000000 2.144469 -0.000000 0.000000 0.118746 -0.000000 -0.004447 6.187047 3.929041 0.112340 0.023045 -0.000000 -0.439733 3.109009 -2.149959 0.221111 -10.269763 -0.026042 -1.931702 -6.215381 42.083999 30.868664 -0.118746 0.000000 0.004447 7.518008 -0.986463 -0.329903 -0.023282 -0.000000 -0.444255 0.290404 0.747264 -0.017107 -13.148023 0.393979 1.718442 -12.325286 -41.669113 -29.931398 
0.020636 -0.045514 0.881901 0.000000 0.000000 -0.222106 0.000000 0.000000 0.000000 -6.849753 2.763620 0.311264 9.999832 -0.036975 -0.301234 0.000000 0.034905 0.284278 13.469568 -1.270390 -1.558299 -0.000000 0.003661 0.209739 11.366331 -0.000000 -0.000001 0.000000 0.034905 0.284278 -2.237504 0.005361 0.274542 0.176212 0.000000 0.000000 51.500873 58.144028 -81.698686 0.321055 0.000132 0.001092 67.521980 53.333180 -104.674145 0.000000 0.034905 0.284278 -2.182228 0.005100 0.267813 -0.176212 -0.000000 0.000000 51.100330 -58.162585 81.160980 -0.306861 0.000132 0.001092 50.757830 -55.153395 82.988130 0.000000 0.000000 0.000000 2.106737 0.000001 -0.000036 0.000000 0.000000 0.000000 2.106709 -0.000000 0.000000 0.118749 -0.000000 -0.004368 6.301150 3.916518 0.115105 0.023045 0.000000 -0.439733 3.075572 -2.133536 0.218293 -10.373373 -0.078380 -1.849610 -6.378088 42.187394 30.850062 -0.118749 0.000000 0.004368 7.480805 -0.954423 -0.330357 -0.023282 -0.000000 -0.444255 0.531593 0.689210 -0.031048 -13.447270 0.365876 1.815772 -12.371680 -41.643752 -29.778156 
0.020614 -0.047179 0.882111 -0.000000 0.000000 -0.513089 0.000000 0.000000 0.000000 -6.979608 2.736425 0.311341 10.000039 -0.020078 -0.163234 -0.000000 0.034905 0.284278 13.556399 -1.203487 -1.454047 -0.000000 0.003661 0.209740 11.374569 -0.000000 -0.000000 -0.000000 0.034905 0.284278 -2.189264 0.005133 0.268681 0.176212 0.000000 -0.000000 51.211177 58.236659 -81.225047 0.321055 0.000132 0.001092 67.903541 53.394509 -104.994809 -0.000000 0.034905 0.284278 -2.133990 0.004878 0.261920 -0.176212 -0.000000 0.000000 51.277205 -58.221079 81.317842 -0.306861 0.000132 0.001092 50.036149 -54.810742 82.477744 0.000000 -0.000000 0.000000 2.046921 -0.000001 0.000063 0.000000 -0.000000 0.000000 2.046892 -0.000000 0.000000 0.118753 -0.000000 -0.004244 6.480360 3.984892 0.114508 0.023045 -0.000000 -0.439733 3.014435 -2.172416 0.214971 -10.509148 -0.222863 -1.599944 -6.596921 42.363849 30.895428 -0.118753 -0.000000 0.004244 7.430449 -0.901990 -0.331525 -0.023282 -0.000000 -0.444255 0.777136 0.643917 -0.045082 -13.669001 0.234476 2.081970 -12.391395 -41.594807 -29.612005 
0.020656 -0.049046 0.882553 -0.000000 0.000000 -0.915689 0.000000 0.000000 -0.000000 -7.113131 2.687914 0.308993 10.000089 -0.000617 -0.004822 -0.000000 0.034905 0.284278 13.611525 -1.083867 -1.247068 -0.000000 0.003661 0.209740 11.438812 0.000000 -0.000001 -0.000000 0.034905 0.284278 -2.111052 0.004774 0.259117 0.176212 0.000000 0.000000 50.773813 58.294305 -80.602946 0.321055 0.000132 0.001092 68.587872 53.528824 -105.536695 -0.000000 0.034905 0.284278 -2.055814 0.004529 0.252407 -0.176212 -0.000000 0.000000 51.436857 -58.179866 81.567478 -0.306861 0.000132 0.001092 49.463697 -54.537223 82.069572 0.000000 0.000000 -0.000000 1.993259 0.000000 0.000013 0.000000 0.000000 -0.000000 1.993230 -0.000000 0.000000 0.118757 -0.000000 -0.004133 6.664068 4.075550 0.112472 0.023045 0.000000 -0.439733 3.005678 -2.199422 0.215051 -10.704033 -0.426468 -1.251376 -6.847682 42.562170 30.942973 -0.118757 -0.000000 0.004133 7.400419 -0.844327 -0.333903 -0.023282 0.000000 -0.444255 0.979683 0.607376 -0.056522 -13.904327 0.047406 2.445564 -12.322096 -41.480470 -29.439645 
